<svg xmlns="http://www.w3.org/2000/svg" xmlns:xlink="http://www.w3.org/1999/xlink" width="485.842" height="123.08" viewBox="0 0 485.842 123.08"><defs><linearGradient id="a" x1="31.278" y1="0.5" x2="-4.762" y2="0.5" gradientUnits="objectBoundingBox"><stop offset="0" stop-color="#ab7a18"/><stop offset="0.114" stop-color="#f3db8a"/><stop offset="0.212" stop-color="#fdf1a5"/><stop offset="0.299" stop-color="#fdf1a5"/><stop offset="0.437" stop-color="#fdf0a2"/><stop offset="0.653" stop-color="#fde16a"/><stop offset="1" stop-color="#f7c539"/></linearGradient><linearGradient id="b" x1="38.22" y1="0.5" x2="-9.908" y2="0.5" xlink:href="#a"/><linearGradient id="c" x1="27.172" y1="0.5" x2="-9.794" y2="0.5" xlink:href="#a"/><linearGradient id="d" x1="30.886" y1="0.5" x2="-17.24" y2="0.5" xlink:href="#a"/><linearGradient id="e" x1="21.233" y1="0.5" x2="-15.733" y2="0.5" xlink:href="#a"/><linearGradient id="f" x1="22.723" y1="0.5" x2="-25.404" y2="0.5" xlink:href="#a"/><linearGradient id="g" x1="15.327" y1="0.5" x2="-22.829" y2="0.5" xlink:href="#a"/><linearGradient id="h" x1="12.53" y1="0.5" x2="-24.436" y2="0.5" xlink:href="#a"/><linearGradient id="i" x1="7.275" y1="0.5" x2="-1.443" y2="0.5" xlink:href="#a"/><linearGradient id="j" x1="11.959" y1="0.5" x2="-4.224" y2="0.5" xlink:href="#a"/><linearGradient id="k" x1="7.239" y1="0.5" x2="-3.433" y2="0.5" xlink:href="#a"/><linearGradient id="l" x1="9.482" y1="0.5" x2="-6.701" y2="0.5" xlink:href="#a"/><linearGradient id="m" x1="4.265" y1="0.5" x2="-3.854" y2="0.5" xlink:href="#a"/><linearGradient id="n" x1="12.568" y1="0.5" x2="-18.836" y2="0.5" xlink:href="#a"/><linearGradient id="o" x1="5.956" y1="0.5" x2="-10.757" y2="0.5" xlink:href="#a"/><linearGradient id="p" x1="11.763" y1="0.5" x2="-36.362" y2="0.5" xlink:href="#a"/><linearGradient id="q" x1="5.838" y1="0.5" x2="-28.161" y2="0.5" xlink:href="#a"/><linearGradient id="r" x1="3.407" y1="0.5" x2="-33.559" y2="0.5" xlink:href="#a"/><linearGradient id="s" x1="2.435" y1="0.5" x2="-6.283" y2="0.5" gradientUnits="objectBoundingBox"><stop offset="0" stop-color="#f7c539"/><stop offset="0.114" stop-color="#f3db8a"/><stop offset="0.212" stop-color="#fdf1a5"/><stop offset="0.299" stop-color="#fdf1a5"/><stop offset="0.437" stop-color="#fdf0a2"/><stop offset="0.653" stop-color="#fde16a"/></linearGradient><linearGradient id="t" x1="2.975" y1="0.5" x2="-13.208" y2="0.5" xlink:href="#s"/><linearGradient id="u" x1="1.63" y1="0.5" x2="-11.605" y2="0.5" xlink:href="#s"/><linearGradient id="v" x1="6.196" y1="0.5" x2="-13.888" y2="0.5" xlink:href="#a"/><linearGradient id="w" x1="25.158" y1="0.5" x2="-1.793" y2="0.5" xlink:href="#a"/><linearGradient id="x" x1="1.518" y1="0.5" x2="-39.538" y2="0.5" gradientUnits="objectBoundingBox"><stop offset="0.114" stop-color="#f3db8a"/><stop offset="0.212" stop-color="#fdf1a5"/><stop offset="0.299" stop-color="#fdf1a5"/><stop offset="0.437" stop-color="#fdf0a2"/><stop offset="0.653" stop-color="#fde16a"/></linearGradient><linearGradient id="y" x1="4.498" y1="0.5" x2="-85.352" y2="0.5" xlink:href="#x"/><linearGradient id="z" x1="12.236" y1="0.5" x2="-33.556" y2="0.5" xlink:href="#a"/><linearGradient id="aa" x1="21.889" y1="0.5" x2="-28.987" y2="0.5" xlink:href="#a"/><linearGradient id="ab" x1="23.69" y1="0.5" x2="-27.187" y2="0.5" xlink:href="#a"/><linearGradient id="ac" x1="25.653" y1="0.5" x2="-25.225" y2="0.5" xlink:href="#a"/><linearGradient id="ad" x1="36.532" y1="0.5" x2="-14.343" y2="0.5" xlink:href="#a"/><linearGradient id="ae" x1="13.943" y1="0.5" x2="-11.017" y2="0.5" xlink:href="#a"/><linearGradient id="af" x1="19.808" y1="0.5" x2="-10.773" y2="0.5" xlink:href="#a"/><linearGradient id="ag" x1="26.489" y1="0.5" x2="-14.048" y2="0.5" xlink:href="#a"/><linearGradient id="ah" x1="29.261" y1="0.5" x2="-6.314" y2="0.5" xlink:href="#a"/><linearGradient id="ai" x1="54.63" y1="0.5" x2="-10.235" y2="0.5" xlink:href="#a"/><linearGradient id="aj" x1="16.508" y1="0.5" x2="-41.698" y2="0.5" xlink:href="#a"/><linearGradient id="ak" x1="16.92" y1="0.5" x2="-30.356" y2="0.5" xlink:href="#a"/><linearGradient id="al" x1="9.676" y1="0.5" x2="-19.172" y2="0.5" xlink:href="#a"/><linearGradient id="am" x1="8.31" y1="0.5" x2="-42.089" y2="0.5" xlink:href="#a"/><linearGradient id="an" x1="46.219" y1="0.5" x2="-7.117" y2="0.5" xlink:href="#a"/><linearGradient id="ao" x1="33.913" y1="0.451" x2="-50.61" y2="0.451" xlink:href="#a"/><linearGradient id="ap" x1="4.242" y1="0.419" x2="-23.338" y2="0.419" xlink:href="#a"/><linearGradient id="aq" x1="2.453" y1="0.411" x2="-1.093" y2="0.411" xlink:href="#a"/></defs><g transform="translate(-4778.708 -17.22)"><path d="M4873.8,120.336q-.833-.382.728-2.809a24.253,24.253,0,0,1,1.942-2.636,16.833,16.833,0,0,1,3.051-2.843q1.318-.867,1.977-.555a19,19,0,0,1,6.1,4.751q.45.52-.277,2.011a15.756,15.756,0,0,1-2.357,3.433,16.284,16.284,0,0,1-3.086,2.844q-1.562,1.005-1.977.554A18.517,18.517,0,0,0,4873.8,120.336Zm1.8-47.92a4.8,4.8,0,0,1,1.248-2.566,20.208,20.208,0,0,1,3.364-3.4,14.859,14.859,0,0,1,2.565-1.629q2.323-1.283,2.392-.139.555,12.413.555,36.754a5.02,5.02,0,0,1-1.249,2.6,20.405,20.405,0,0,1-3.4,3.363,16.574,16.574,0,0,1-2.565,1.664q-2.359,1.249-2.358.1Q4876.163,84.8,4875.607,72.416Z" transform="translate(-57.912 -28.664)" fill="url(#a)"/><path d="M4981.583,44.575a7.754,7.754,0,0,1-1.352,4.716,4.994,4.994,0,0,1-4.3,2.046,5.121,5.121,0,0,1-3.5-1.249,4.246,4.246,0,0,1-1.526-3.363,13.553,13.553,0,0,1,1.11-4.958q1.386-3.433,3.364-3.433a6.269,6.269,0,0,1,3.883,1.49A5.786,5.786,0,0,1,4981.583,44.575Zm-2.531.936a2.863,2.863,0,0,0-1.334-2.184,4.216,4.216,0,0,0-2.55-1.04q-1.732,0-1.733,2.427,0,2.046,3.051,2.046Q4979.051,46.76,4979.052,45.511Z" transform="translate(-117.401 -12.897)" fill="url(#b)"/><path d="M5062.847,225.222l-13.905,6.97v-3.814l13.905-6.969Z" transform="translate(-165.071 -124.728)" fill="url(#c)"/><path d="M5182.816,69.083a7.754,7.754,0,0,1-1.352,4.716,5,5,0,0,1-4.3,2.046,5.121,5.121,0,0,1-3.5-1.249,4.245,4.245,0,0,1-1.525-3.363,13.543,13.543,0,0,1,1.11-4.958q1.386-3.433,3.363-3.433a6.27,6.27,0,0,1,3.884,1.491A5.784,5.784,0,0,1,5182.816,69.083Zm-2.532.936a2.86,2.86,0,0,0-1.334-2.184,4.218,4.218,0,0,0-2.549-1.04q-1.734,0-1.734,2.427,0,2.046,3.052,2.046Q5180.284,71.268,5180.285,70.019Z" transform="translate(-240.324 -27.868)" fill="url(#d)"/><path d="M5275.041,38.486l-13.9,6.934V41.606l13.9-6.97Z" transform="translate(-294.69 -10.639)" fill="url(#e)"/><path d="M5406.859,50.94a7.757,7.757,0,0,1-1.353,4.716,4.993,4.993,0,0,1-4.3,2.046,5.121,5.121,0,0,1-3.5-1.249,4.244,4.244,0,0,1-1.525-3.363,13.563,13.563,0,0,1,1.11-4.958q1.386-3.433,3.364-3.433a6.27,6.27,0,0,1,3.883,1.491A5.784,5.784,0,0,1,5406.859,50.94Zm-2.532.936a2.86,2.86,0,0,0-1.334-2.184,4.215,4.215,0,0,0-2.549-1.04q-1.734,0-1.733,2.427,0,2.046,3.051,2.046Q5404.328,53.125,5404.328,51.876Z" transform="translate(-377.18 -16.785)" fill="url(#f)"/><path d="M5511.186,205.218l-13.049,8.463-.42-3.791,13.049-8.462Z" transform="translate(-439.203 -112.523)" fill="url(#g)"/><path d="M5586,58.54l-13.9,6.934V61.66l13.9-6.97Z" transform="translate(-484.636 -22.888)" fill="url(#h)"/><g transform="translate(4832.756 35.481)"><path d="M4955.756,125.407q7.107,2.878,11.894,2.6v10.783q-17.1-.138-24.966-5.791a15.678,15.678,0,0,0-12.344,4.993,14.353,14.353,0,0,0-3.085,10.646,19.061,19.061,0,0,0,2.462,7.766,24.15,24.15,0,0,0,11.615,9.744q14.32,6.172,34.431,1.873,1.145-.243.624,1.422a11.707,11.707,0,0,1-2.08,3.571q-3.676,4.75-6.588,5.374a68.8,68.8,0,0,1-18.62,1.561q-21.5-1.214-28.5-13.419a20.141,20.141,0,0,1-1.6-17.961,45.978,45.978,0,0,1,2.653-5.79,33.734,33.734,0,0,1,3.485-5.028,54.537,54.537,0,0,1,4.022-4.508,63.842,63.842,0,0,1,7.593-6.38q-7.213-8.426-9.015-12.309a9.691,9.691,0,0,1-1.11-3.537,12.028,12.028,0,0,1,2.046-5.929q5.235-8.322,12.448-9.4.832-.139,8.079-.659a68.963,68.963,0,0,1,8.842-.208q4.783.416,6.448,2.982,2.359,3.606.8,8.945a54.627,54.627,0,0,1-4.611,10.368Q4957.8,122.391,4955.756,125.407Zm-1.11-7.316q2.635-6.831.9-9.5-1.8-2.738-5.859-2.982a74.576,74.576,0,0,0-8.877.243q-3.953.347.52,4.959,2.358,3.016,5.1,6.207a51.674,51.674,0,0,0,5.825,5.86A30.811,30.811,0,0,0,4954.646,118.091Z" transform="translate(-4917.593 -82.843)" fill="url(#i)"/><path d="M5043.729,115.2h11.927V104.554q.07-2.808,4.612-7.316a18.393,18.393,0,0,1,2.565-2.011q3.051-1.56,3.052-.139v14.736q.172,4.993,9.6,5.409v10.783h-4.716q-10.958.034-13.661-5.34a16.472,16.472,0,0,1-6.034,4.265,27.182,27.182,0,0,1-7.351,1.04Zm.9-31.657q-.9-.451.762-3.086a25.368,25.368,0,0,1,2.116-2.844,17.381,17.381,0,0,1,3.329-3.086q1.456-.937,2.15-.59a20.16,20.16,0,0,1,6.657,5.131q.486.556-.312,2.185A18.126,18.126,0,0,1,5056.767,85a17.248,17.248,0,0,1-3.364,3.051q-1.664,1.144-2.115.624A20.776,20.776,0,0,0,5044.631,83.542Zm15.222,0q-.9-.451.764-3.086a24.893,24.893,0,0,1,2.115-2.844,16.794,16.794,0,0,1,3.362-3.086q1.421-.937,2.116-.59a20.16,20.16,0,0,1,6.657,5.131q.485.556-.312,2.185A16.358,16.358,0,0,1,5071.988,85a17.2,17.2,0,0,1-3.363,3.051q-1.664,1.144-2.115.624A20.773,20.773,0,0,0,5059.853,83.542Z" transform="translate(-4994.643 -70.069)" fill="url(#j)"/><path d="M5162.526,147.095q.9,4.091,9.466,4.473v10.783h-4.715a26.347,26.347,0,0,1-7.837-.936q-3.086,5.1-9.778,4.577-7.213-.555-13.106-7.8a19.817,19.817,0,0,1-12.725,4.16V151.567q8.6.486,17.788-12.76,3.155-3.85,5.548-4.889a7.053,7.053,0,0,1,7.107.866,20.685,20.685,0,0,1,6.311,6.484A18.014,18.014,0,0,1,5162.526,147.095Zm-8.6,8.46q2.913-.416,3.745-1.422l-1.353-2.08q-3.711-5.686-7.281-6.934-3.675-1.387-6.657,2.254a21.366,21.366,0,0,0-1.422,2.184l-.069.139Q5146.887,156.63,5153.927,155.554Z" transform="translate(-5043.572 -106.403)" fill="url(#k)"/><path d="M5245.9,115.2h11.928V104.554q.07-2.808,4.611-7.316A18.378,18.378,0,0,1,5265,95.227q3.051-1.56,3.051-.139v14.736q.173,4.993,9.6,5.409v10.783h-4.715q-10.958.034-13.662-5.34a16.46,16.46,0,0,1-6.032,4.265,27.2,27.2,0,0,1-7.352,1.04Zm.9-31.657q-.9-.451.762-3.086a25.366,25.366,0,0,1,2.115-2.844,17.4,17.4,0,0,1,3.329-3.086q1.456-.937,2.149-.59a20.151,20.151,0,0,1,6.657,5.131q.486.556-.312,2.185A18.049,18.049,0,0,1,5258.935,85a17.247,17.247,0,0,1-3.363,3.051q-1.663,1.144-2.114.624A20.794,20.794,0,0,0,5246.8,83.542Zm15.221,0q-.9-.451.765-3.086a25.006,25.006,0,0,1,2.114-2.844,16.768,16.768,0,0,1,3.362-3.086q1.421-.937,2.116-.59a20.17,20.17,0,0,1,6.657,5.131q.485.556-.312,2.185A16.449,16.449,0,0,1,5274.157,85a17.222,17.222,0,0,1-3.364,3.051q-1.664,1.144-2.115.624A20.773,20.773,0,0,0,5262.021,83.542Z" transform="translate(-5118.136 -70.069)" fill="url(#l)"/><path d="M5368.544,147.838q-6.45-.625-9.016-5.34-3.051,5.479-9.881,5.34-7.7-.416-10.264-5.34a16.465,16.465,0,0,1-6.033,4.265A27.2,27.2,0,0,1,5326,147.8V137.02h11.927V126.375q.07-2.808,4.612-7.316a18.467,18.467,0,0,1,2.564-2.011q3.052-1.56,3.052-.139v14.736q.173,4.751,8.7,5.374h1.214V126.375q.07-2.808,4.612-7.316a18.416,18.416,0,0,1,2.565-2.011q3.051-1.56,3.052-.139v14.736q.174,4.924,9.4,5.409v.034h2.011q.209-6.97-3.121-17.371-.243-.762,1.248-3.156a22.3,22.3,0,0,1,3.364-4.16q4.263-4.23,4.958-2.15,4.23,13.21,2.773,20.457-1.663,8.218-6.691,12.552Q5377.7,147.977,5368.544,147.838Z" transform="translate(-5167.066 -91.89)" fill="url(#m)"/><path d="M5497.16,74.289a6.556,6.556,0,0,1,1.248-3.155,23.973,23.973,0,0,1,3.364-4.162,17.129,17.129,0,0,1,2.566-2.011q2.323-1.56,2.392-.139.554,15.223.554,45.111a6.7,6.7,0,0,1-1.248,3.155,23.1,23.1,0,0,1-3.4,4.16,16.041,16.041,0,0,1-2.565,2.012q-2.359,1.56-2.358.139Q5497.715,89.512,5497.16,74.289Z" transform="translate(-5271.619 -64.145)" fill="url(#n)"/><path d="M5574.472,125.547q1.04,1.6,1.872,3.19a46.864,46.864,0,0,1,2.22,5.617,27.16,27.16,0,0,1,1.248,10.437q-.659,12.587-6.8,20.354-6.207,7.835-22.365,15.221-2.079.936-1.352-5.236a21.329,21.329,0,0,1,1.214-5.2q.935-2.567,1.7-2.948,6.623-3.016,10.333-5.2a51.769,51.769,0,0,0,5.3-3.5q1.422-1.075,2.462-2.012.59-.555,1.456-1.421a95.98,95.98,0,0,1-10.055-.312q-10.125-1.282-11.686-8.633-1.213-5.755.832-14.113,1.734-7.107,4.959-10.679,3.571-3.919,7.837-3.953a7.947,7.947,0,0,1,6.622,2.773A42.478,42.478,0,0,1,5574.472,125.547Zm-8.876,3.78a6.676,6.676,0,0,0-6.97.242,9.487,9.487,0,0,0-2.982,3.19q-1.872,6.52,4.126,8.253,3.814,1.318,13.523,1.664Q5568.992,130.957,5565.6,129.327Z" transform="translate(-5303.354 -96.521)" fill="url(#o)"/></g><path d="M5707.623,59.184a7.757,7.757,0,0,1-1.352,4.716,5,5,0,0,1-4.3,2.045,5.118,5.118,0,0,1-3.5-1.248,4.243,4.243,0,0,1-1.526-3.363,13.551,13.551,0,0,1,1.11-4.958q1.386-3.433,3.364-3.433a6.273,6.273,0,0,1,3.883,1.49A5.786,5.786,0,0,1,5707.623,59.184Zm-2.532.936a2.86,2.86,0,0,0-1.334-2.184,4.215,4.215,0,0,0-2.549-1.04q-1.735,0-1.734,2.427,0,2.045,3.051,2.046Q5705.089,61.369,5705.09,60.12Z" transform="translate(-560.9 -21.821)" fill="url(#p)"/><path d="M5808.089,17.22q0,10.368-4.715,10.368a3.1,3.1,0,0,1-2.461-1.075q-1.526,3.537-4.3,3.536-3.642,0-3.641-4.923a18.383,18.383,0,0,1,.52-4.092l3.364-.52a12.288,12.288,0,0,0-.764,3.675q0,1.423.868,1.422,1.663,0,2.253-6.033l3.467-1.075q-.1,1.249-.1,2.184,0,2.428.8,2.428,1.144,0,1.421-1.387.034-.208.209-3.571Zm-.173,11.408-.069,3.814-13.835,6.969V35.6Z" transform="translate(-619.56 0)" fill="url(#q)"/><path d="M5911.934,89.669l-13.9,6.934V92.789l13.9-6.97Z" transform="translate(-683.734 -41.903)" fill="url(#r)"/><g transform="translate(5118.104 46.865)"><path d="M5689.013,144.961q7.109,2.878,11.895,2.6v10.783q-17.1-.138-24.966-5.791a15.679,15.679,0,0,0-12.345,4.993,14.354,14.354,0,0,0-3.085,10.646,19.076,19.076,0,0,0,2.462,7.766,24.163,24.163,0,0,0,11.615,9.743q14.321,6.172,34.432,1.873,1.145-.243.624,1.421a11.721,11.721,0,0,1-2.081,3.572q-3.675,4.75-6.587,5.374a68.823,68.823,0,0,1-18.621,1.561q-21.5-1.214-28.5-13.419a20.136,20.136,0,0,1-1.594-17.961,45.715,45.715,0,0,1,2.652-5.79,33.726,33.726,0,0,1,3.484-5.027,54.675,54.675,0,0,1,4.022-4.508,63.956,63.956,0,0,1,7.593-6.38q-7.211-8.426-9.014-12.309a9.68,9.68,0,0,1-1.11-3.537,12.025,12.025,0,0,1,2.046-5.929q5.235-8.322,12.447-9.4.833-.139,8.079-.659a69.015,69.015,0,0,1,8.842-.208q4.785.416,6.449,2.982,2.358,3.607.8,8.945a54.664,54.664,0,0,1-4.612,10.368Q5691.059,141.944,5689.013,144.961Zm-1.109-7.316q2.634-6.83.9-9.5-1.8-2.738-5.859-2.982a74.567,74.567,0,0,0-8.876.243q-3.954.347.519,4.959,2.358,3.016,5.1,6.206a51.687,51.687,0,0,0,5.825,5.86A30.739,30.739,0,0,0,5687.9,137.644Z" transform="translate(-5650.85 -106.171)" fill="url(#s)"/><path d="M5776.987,134.752h11.928V124.107q.067-2.808,4.611-7.316a18.33,18.33,0,0,1,2.565-2.011q3.051-1.56,3.052-.139v14.736q.172,4.993,9.6,5.409v10.783h-4.716q-10.956.034-13.661-5.34a16.469,16.469,0,0,1-6.034,4.265,27.165,27.165,0,0,1-7.35,1.04Zm.9-31.657q-.9-.451.762-3.086a25.2,25.2,0,0,1,2.115-2.844,17.378,17.378,0,0,1,3.328-3.086q1.456-.936,2.15-.589a20.156,20.156,0,0,1,6.657,5.131q.486.556-.312,2.185a18.051,18.051,0,0,1-2.566,3.744,17.2,17.2,0,0,1-3.363,3.051q-1.663,1.144-2.115.624A20.786,20.786,0,0,0,5777.889,103.1Zm15.222,0q-.9-.451.763-3.086a25.192,25.192,0,0,1,2.114-2.844,16.861,16.861,0,0,1,3.363-3.086q1.422-.936,2.116-.589a20.161,20.161,0,0,1,6.657,5.131q.486.556-.312,2.185a16.419,16.419,0,0,1-2.566,3.744,17.209,17.209,0,0,1-3.363,3.051q-1.665,1.144-2.115.624A20.8,20.8,0,0,0,5793.111,103.1Z" transform="translate(-5727.9 -93.397)" fill="url(#t)"/><path d="M5857.089,181.9V171.121q8.6.486,17.789-12.76,3.155-3.849,5.548-4.889a7.052,7.052,0,0,1,7.107.866,20.68,20.68,0,0,1,6.31,6.484,15.643,15.643,0,0,1,2.081,8.148A22.45,22.45,0,0,1,5892.8,180.8q-3.086,5.269-9.882,4.75-7.211-.555-13.106-7.8A19.813,19.813,0,0,1,5857.089,181.9Zm30.1-6.8q2.911-.416,3.744-1.422l-1.352-2.081q-3.711-5.685-7.282-6.934-3.675-1.388-6.656,2.254a21.239,21.239,0,0,0-1.422,2.184l-.07.139Q5880.147,176.184,5887.187,175.108Z" transform="translate(-5776.83 -129.73)" fill="url(#u)"/></g><path d="M5632.108,38.323l5.421.713a.51.51,0,0,0,.369-.174l1.833-1.607q1.449-1.268,2.154-1.89.639-.59.667.279l.1,5.56a.5.5,0,0,0,.356.532q4.724,1.483,5.088,1.61.524.184.091.383-1.772,1.059-4.548,2.4a.83.83,0,0,0-.307.483q-.481,1.372-1.062,2.889t-.963,2.607c-.1.27-.255.29-.475.06l-3.2-3.665-.065-.068a.564.564,0,0,0-.209-.119.491.491,0,0,0-.29-.011l-5.424.7c-.167,0-.237-.1-.209-.291.067-.126.214-.4.444-.832l.969-1.82q.626-1.176,1.375-2.577a.556.556,0,0,0-.015-.478l-1.105-1.926-1.339-2.335Q5631.608,38.312,5632.108,38.323Z" transform="translate(-520.887 -10.938)" fill="url(#v)"/><path d="M4779.769,163.752l4.889.041,2.31.02a20.429,20.429,0,0,0,2.093-.024l5.88,9.405a.666.666,0,0,0,.836.253.7.7,0,0,0,.469-.58q1.083-2.255,3.6-8.653a1.471,1.471,0,0,1,.921-.7l7.99-1.576c.651-.147,1.04-.41,1.167-.783a1.317,1.317,0,0,0-.418-1.271q-.828-.963-3.4-4.041t-3.185-3.787a2.857,2.857,0,0,1-.412-.8q.062-1.538.194-4.75t.195-4.75q-.04-1.278-1.4-.115-.051.042-6.86,6.249a.792.792,0,0,1-.861.211l-8.991-4.969a.911.911,0,0,0-1.113-.012,1.284,1.284,0,0,0-.307,1.232q.25,1.246.651,3.256t.7,3.5q.3,1.495.575,2.869a.988.988,0,0,1-.027.465l-6.27,8.213Q4778.152,163.819,4779.769,163.752Zm1.865-1.923,5.2-6.792a.8.8,0,0,0,.052-.635l-.747-3.739q-.59-2.953-.881-4.4-.3-1.325.9-.686l7.62,4.194a.787.787,0,0,0,1-.067q5.7-5.247,6.151-5.641.658-.566.59.177.053,3.227-.3,8.036a1.3,1.3,0,0,0,.415.791q1.483,1.725,3.087,3.695t2.783,3.339c.291.339.193.571-.29.69l-7.462,1.476-.145.035a.868.868,0,0,0-.323.19.765.765,0,0,0-.241.384l-3.277,7.9c-.127.23-.314.248-.559.056q-.176-.285-.781-1.251l-1.71-2.734q-1.1-1.768-2.42-3.872a.872.872,0,0,0-.659-.353l-3.473,0-4.208-.006C4781.469,162.539,4781.365,162.275,4781.634,161.83Z" transform="translate(0 -75.658)" fill="url(#w)"/><path d="M5970.93,101.512l1.157,3.2q.064.175.547,1.511a14.167,14.167,0,0,0,.523,1.359l-4.71,6.114a.464.464,0,0,0,.038.606.485.485,0,0,0,.493.166q1.732.16,6.516.253a1.022,1.022,0,0,1,.682.43l2.965,4.83c.253.389.519.579.793.571s.518-.2.728-.58q.428-.773,1.81-3.2t1.7-2.995a1.974,1.974,0,0,1,.425-.464q1.017-.331,3.145-1.024l3.145-1.024c.549-.223.463-.538-.264-.939l-5.737-2.959a.551.551,0,0,1-.346-.511l1.063-7.068a.636.636,0,0,0-.261-.728.9.9,0,0,0-.879.1q-.753.465-1.966,1.214l-2.116,1.307-1.731,1.07a.689.689,0,0,1-.311.095l-6.875-2.1Q5970.5,100.473,5970.93,101.512Zm1.706.751,5.689,1.743a.555.555,0,0,0,.426-.119l2.257-1.394q1.783-1.1,2.653-1.639.791-.518.665.419l-.89,5.986a.546.546,0,0,0,.286.635q4.8,2.443,5.169,2.645.529.292.028.428-2.093.816-5.313,1.754c-.126.036-.265.191-.415.462q-.766,1.385-1.661,2.909t-1.5,2.624c-.15.272-.325.265-.52-.022l-2.77-4.509-.058-.085a.6.6,0,0,0-.2-.165.539.539,0,0,0-.31-.065l-5.947-.223c-.181-.028-.237-.145-.171-.351.1-.123.3-.394.627-.813s.779-1.013,1.369-1.778l1.939-2.517a.612.612,0,0,0,.071-.516l-.838-2.266-1.016-2.747C5972.132,102.326,5972.279,102.195,5972.636,102.262Z" transform="translate(-726.691 -49.944)" fill="url(#x)"/><g transform="translate(5235.943 81.402)"><g transform="translate(0)"><path d="M5953.809,201.612a9.512,9.512,0,0,1,.782-.657c.263-.221.516-.458.762-.7a12.159,12.159,0,0,0,1.287-1.431,11.481,11.481,0,0,0,1.688-3.771,29.329,29.329,0,0,0,1.047-8.177,13.669,13.669,0,0,0-.233-2.287c-.131-.765-.326-1.51-.488-2.267-.054-.253-.435-.238-.413.036a37.3,37.3,0,0,1-.039,4.019c-.036,1.318-.064,2.624-.221,3.935a32.271,32.271,0,0,1-.693,3.839,16.443,16.443,0,0,1-1.267,3.7,17.286,17.286,0,0,1-1.059,1.815c-.2.295-.413.584-.614.878a9.271,9.271,0,0,1-.672.955c-.075.084.056.194.132.114Z" transform="translate(-5953.655 -182.146)" fill="url(#y)"/></g></g><g transform="translate(5124.334 56.255)"><g transform="translate(0)"><path d="M5677.956,117.533a8.825,8.825,0,0,1-.938.236c-.317.079-.628.177-.936.279a10.967,10.967,0,0,0-1.667.684,9.707,9.707,0,0,0-2.843,2.5,24.347,24.347,0,0,0-3.788,6.488,11.606,11.606,0,0,0-.582,2.029c-.145.7-.227,1.41-.343,2.117-.038.236.314.379.39.138a31.251,31.251,0,0,1,1.428-3.384c.491-1.1.969-2.193,1.566-3.239a26.728,26.728,0,0,1,1.961-2.963,13.779,13.779,0,0,1,2.435-2.609,14.821,14.821,0,0,1,1.593-1.1c.285-.167.577-.326.862-.492a8.271,8.271,0,0,1,.941-.533c.1-.04.018-.186-.08-.15Z" transform="translate(-5666.856 -117.527)" fill="url(#z)"/></g></g><g transform="translate(5040.534 51.303)"><path d="M5461.527,104.8a7.071,7.071,0,0,1-.77.042c-.26.014-.516.043-.771.076a8.382,8.382,0,0,0-1.385.283,6.894,6.894,0,0,0-2.471,1.523,16.95,16.95,0,0,0-3.541,4.494,8.426,8.426,0,0,0-.626,1.5c-.171.525-.292,1.067-.441,1.6-.049.178.221.344.3.167a22.009,22.009,0,0,1,1.411-2.427,25.2,25.2,0,0,1,1.507-2.292,18.561,18.561,0,0,1,1.8-2.018,9.636,9.636,0,0,1,2.152-1.67,10.679,10.679,0,0,1,1.361-.62c.241-.088.487-.167.728-.253a6,6,0,0,1,.795-.274c.082-.017.029-.143-.052-.129Z" transform="translate(-5451.518 -104.802)" fill="url(#aa)"/></g><g transform="translate(5022.343 58.299)"><g transform="translate(0)"><path d="M5414.782,122.781a7.055,7.055,0,0,1-.77.042c-.26.014-.517.043-.771.076a8.372,8.372,0,0,0-1.386.283,6.9,6.9,0,0,0-2.47,1.523,16.949,16.949,0,0,0-3.541,4.495,8.284,8.284,0,0,0-.626,1.5c-.171.525-.293,1.067-.441,1.6-.05.179.221.344.3.167a21.886,21.886,0,0,1,1.411-2.426,25.161,25.161,0,0,1,1.507-2.292,18.641,18.641,0,0,1,1.8-2.017,9.636,9.636,0,0,1,2.152-1.67,10.742,10.742,0,0,1,1.361-.62c.241-.088.486-.167.728-.253a5.964,5.964,0,0,1,.8-.274c.081-.017.028-.143-.052-.129Z" transform="translate(-5404.772 -122.78)" fill="url(#ab)"/></g></g><g transform="translate(5002.522 58.299)"><g transform="translate(0)"><path d="M5363.848,122.781a7.048,7.048,0,0,1-.77.042c-.26.014-.516.043-.77.076a8.367,8.367,0,0,0-1.387.283,6.9,6.9,0,0,0-2.471,1.523,16.937,16.937,0,0,0-3.54,4.495,8.249,8.249,0,0,0-.626,1.5c-.172.525-.293,1.067-.441,1.6-.05.179.22.344.3.167a21.878,21.878,0,0,1,1.41-2.426,25.264,25.264,0,0,1,1.507-2.292,18.6,18.6,0,0,1,1.8-2.017,9.622,9.622,0,0,1,2.151-1.67,10.7,10.7,0,0,1,1.361-.62c.241-.088.486-.167.728-.253a6.036,6.036,0,0,1,.8-.274c.081-.017.029-.143-.052-.129Z" transform="translate(-5353.839 -122.78)" fill="url(#ac)"/></g></g><g transform="translate(4892.597 57.522)"><g transform="translate(0)"><path d="M5081.375,120.785a7.067,7.067,0,0,1-.769.042c-.26.014-.517.043-.771.076a8.392,8.392,0,0,0-1.386.283,6.882,6.882,0,0,0-2.47,1.523,16.919,16.919,0,0,0-3.541,4.495,8.177,8.177,0,0,0-.625,1.5c-.172.525-.294,1.067-.442,1.6-.05.179.22.344.3.167a21.813,21.813,0,0,1,1.411-2.426,25.157,25.157,0,0,1,1.507-2.293,18.585,18.585,0,0,1,1.8-2.017,9.617,9.617,0,0,1,2.152-1.67,10.794,10.794,0,0,1,1.36-.62c.241-.088.487-.167.729-.253a6.009,6.009,0,0,1,.8-.274c.08-.017.028-.143-.053-.129Z" transform="translate(-5071.366 -120.784)" fill="url(#ad)"/></g></g><g transform="translate(4974.55 89.626)"><path d="M5281.994,203.479a10.455,10.455,0,0,1,.742.884c.25.3.516.579.783.853a12.572,12.572,0,0,0,1.584,1.407,10.318,10.318,0,0,0,4.044,1.592,25.364,25.364,0,0,0,8.565.2,12.422,12.422,0,0,0,2.355-.6c.783-.266,1.541-.607,2.314-.91.258-.1.213-.573-.07-.509a32.826,32.826,0,0,1-4.174.491,37.507,37.507,0,0,1-4.1.254A27.716,27.716,0,0,1,5290,206.8a14.413,14.413,0,0,1-3.934-1.078,16.121,16.121,0,0,1-1.966-1.074c-.322-.211-.637-.433-.958-.645a9.017,9.017,0,0,1-1.042-.706c-.093-.082-.2.094-.108.179Z" transform="translate(-5281.959 -203.279)" fill="url(#ae)"/></g><g transform="translate(4928.762 93.279)"><path d="M5164.326,212.83a8.4,8.4,0,0,1,.606.721c.2.243.419.472.639.7a10.265,10.265,0,0,0,1.292,1.148,8.427,8.427,0,0,0,3.3,1.3,20.706,20.706,0,0,0,6.991.167,10.168,10.168,0,0,0,1.922-.486c.64-.218,1.258-.5,1.889-.743.21-.083.174-.468-.057-.415a26.751,26.751,0,0,1-3.407.4,30.722,30.722,0,0,1-3.347.207,22.614,22.614,0,0,1-3.294-.283,11.756,11.756,0,0,1-3.211-.88,13.018,13.018,0,0,1-1.6-.876c-.263-.172-.521-.353-.783-.527a7.4,7.4,0,0,1-.85-.576c-.076-.067-.161.077-.088.146Z" transform="translate(-5164.298 -212.666)" fill="url(#af)"/></g><g transform="translate(4925.81 59.954)"><path d="M5169.28,127.034a8.675,8.675,0,0,1-.942.024c-.316.008-.631.034-.942.066a10.209,10.209,0,0,0-1.7.3,8.427,8.427,0,0,0-3.073,1.773,20.707,20.707,0,0,0-4.485,5.365,10.094,10.094,0,0,0-.817,1.806c-.228.635-.4,1.293-.6,1.94-.066.216.257.428.361.214a26.774,26.774,0,0,1,1.808-2.915,30.639,30.639,0,0,1,1.924-2.747,22.578,22.578,0,0,1,2.274-2.4,11.73,11.73,0,0,1,2.688-1.964,13.016,13.016,0,0,1,1.685-.709c.3-.1.6-.187.9-.284a7.384,7.384,0,0,1,.981-.306c.1-.018.041-.174-.06-.16Z" transform="translate(-5156.712 -127.033)" fill="url(#ag)"/></g><g transform="translate(4838.909 46.871)"><g transform="translate(0 0)"><path d="M4947.721,93.414a9.974,9.974,0,0,1-1.1.056c-.369.018-.734.058-1.1.1a11.86,11.86,0,0,0-1.976.394,9.818,9.818,0,0,0-3.529,2.155,24.129,24.129,0,0,0-5.071,6.381,11.947,11.947,0,0,0-.9,2.128c-.248.748-.423,1.518-.637,2.278-.072.254.312.491.425.239a30.937,30.937,0,0,1,2.024-3.448,35.75,35.75,0,0,1,2.16-3.256,26.262,26.262,0,0,1,2.581-2.863,13.693,13.693,0,0,1,3.075-2.366,15.252,15.252,0,0,1,1.942-.875c.344-.123.695-.235,1.04-.356a8.52,8.52,0,0,1,1.134-.386c.115-.023.042-.2-.075-.184Z" transform="translate(-4933.405 -93.412)" fill="url(#ah)"/></g></g><g transform="translate(4828.793 107.636)"><g transform="translate(0)"><path d="M4908.75,249.64a9.926,9.926,0,0,1-.415,1.016c-.141.342-.259.69-.372,1.037a11.716,11.716,0,0,0-.483,1.957,9.81,9.81,0,0,0,.451,4.109,24.147,24.147,0,0,0,3.624,7.3,11.815,11.815,0,0,0,1.544,1.719c.571.542,1.194,1.029,1.792,1.545.2.173.576-.074.4-.284a31.116,31.116,0,0,1-2.262-3.3,35.845,35.845,0,0,1-2.031-3.34,26.652,26.652,0,0,1-1.5-3.552,13.731,13.731,0,0,1-.836-3.789,15.16,15.16,0,0,1,.034-2.13c.035-.364.081-.728.118-1.092a8.629,8.629,0,0,1,.133-1.19c.028-.115-.166-.124-.2-.011Z" transform="translate(-4907.411 -249.56)" fill="url(#ai)"/></g></g><g transform="translate(5115.898 117.815)"><path d="M5645.663,275.8a9.028,9.028,0,0,1-.2.947c-.069.319-.119.641-.162.962a11.029,11.029,0,0,0-.118,1.8,9.721,9.721,0,0,0,.994,3.653,24.356,24.356,0,0,0,4.162,6.255,11.7,11.7,0,0,0,1.567,1.415c.565.439,1.166.824,1.75,1.238.2.138.479-.114.3-.288a31.287,31.287,0,0,1-2.411-2.772c-.772-.924-1.543-1.834-2.22-2.83a26.767,26.767,0,0,1-1.8-3.065,13.739,13.739,0,0,1-1.272-3.333,14.628,14.628,0,0,1-.29-1.916c-.025-.33-.039-.661-.062-.991a8.15,8.15,0,0,1-.064-1.08c.006-.105-.16-.1-.17.007Z" transform="translate(-5645.179 -275.718)" fill="url(#aj)"/></g><g transform="translate(5077.722 54.525)"><g transform="translate(0 0)"><path d="M5557.821,113.088a8.764,8.764,0,0,1-.933.259c-.314.087-.623.192-.928.3a10.932,10.932,0,0,0-1.648.725,9.708,9.708,0,0,0-2.783,2.569,24.35,24.35,0,0,0-3.627,6.579,11.517,11.517,0,0,0-.533,2.043c-.127.7-.192,1.415-.291,2.124-.032.237.323.372.392.129a31.193,31.193,0,0,1,1.346-3.418,35.93,35.93,0,0,1,1.486-3.276,26.717,26.717,0,0,1,1.89-3.01,13.732,13.732,0,0,1,2.369-2.668,14.877,14.877,0,0,1,1.566-1.141c.282-.174.568-.34.85-.513a8.209,8.209,0,0,1,.929-.556c.1-.043.013-.187-.084-.148Z" transform="translate(-5547.077 -113.081)" fill="url(#ak)"/></g></g><g transform="translate(5089.278 101.924)"><path d="M5576.863,250.071c.34-.111.691-.158,1.03-.235s.7-.177,1.046-.28a16.251,16.251,0,0,0,1.955-.7,18.356,18.356,0,0,0,3.972-2.589,48.829,48.829,0,0,0,6.8-6.766,21.4,21.4,0,0,0,1.537-2.124c.477-.734.9-1.478,1.346-2.219.151-.248-.125-.4-.314-.15-.913,1.224-2,2.372-3.011,3.536s-1.994,2.291-3.076,3.381c-1.066,1.074-2.18,2.107-3.332,3.087a27.075,27.075,0,0,1-3.624,2.709c-.685.408-1.379.8-2.083,1.136-.359.172-.719.335-1.078.505-.385.182-.786.408-1.175.547-.114.041-.1.2.008.158Z" transform="translate(-5576.774 -234.882)" fill="url(#al)"/></g><g transform="translate(5176.93 64.445)"><g transform="translate(0)"><path d="M5802.2,149.267c.142-.034.228-.007.358-.088a1.516,1.516,0,0,0,.312-.3,7.087,7.087,0,0,0,.544-.728q.52-.753,1.051-1.5a29.883,29.883,0,0,1,2.258-2.823,49.007,49.007,0,0,1,5.383-4.789.266.266,0,0,0-.274-.448,14.807,14.807,0,0,0-5.03,3.165,20.722,20.722,0,0,0-3.78,4.611,15.065,15.065,0,0,0-.773,1.525,3.218,3.218,0,0,0-.228.769.812.812,0,0,0,.132.579.045.045,0,0,0,.048.026Z" transform="translate(-5802.011 -138.574)" fill="url(#am)"/></g></g><g transform="translate(4816.275 32.818)"><g transform="translate(0 0)"><path d="M4875.38,65.571a.868.868,0,0,0,.318-.045,1.3,1.3,0,0,0,.293-.23,5.813,5.813,0,0,0,.529-.573q.509-.6,1.027-1.185a25.526,25.526,0,0,1,2.18-2.208,42.032,42.032,0,0,1,5.051-3.619c.226-.148.042-.463-.206-.4a12.908,12.908,0,0,0-4.622,2.271,17.516,17.516,0,0,0-3.639,3.6,12.375,12.375,0,0,0-.788,1.229,2.71,2.71,0,0,0-.256.634.67.67,0,0,0,.073.5.04.04,0,0,0,.041.026Z" transform="translate(-4875.244 -57.301)" fill="url(#an)"/></g></g><g transform="translate(5055.197 31.592)"><g transform="translate(0 0)"><path d="M5489.419,65.718c.145-.042.234-.018.367-.108a1.573,1.573,0,0,0,.308-.327,7.145,7.145,0,0,0,.532-.783c.336-.538.675-1.074,1.021-1.607a31.145,31.145,0,0,1,2.212-3.038,50.964,50.964,0,0,1,5.369-5.227.277.277,0,0,0-.306-.453,15.4,15.4,0,0,0-5.078,3.524,21.493,21.493,0,0,0-3.71,4.968,15.566,15.566,0,0,0-.732,1.62,3.37,3.37,0,0,0-.2.81.838.838,0,0,0,.166.6.048.048,0,0,0,.051.025Z" transform="translate(-5489.195 -54.152)" fill="url(#ao)"/></g></g><g transform="translate(5183.291 104.944)"><g transform="translate(0)"><path d="M5835.278,242.856c.09.96.271,1.916.329,2.878s.054,1.93.029,2.9a15.521,15.521,0,0,1-1.264,5.612,16.245,16.245,0,0,1-9.2,8.726,8.011,8.011,0,0,1-3.047.641,2.309,2.309,0,0,1-2.232-1.4,2.571,2.571,0,0,1,.877-2.337,5.626,5.626,0,0,1,2.312-1.4c4.2-1.353,8.143,1.878,9.208,5.832A11.2,11.2,0,0,1,5828.3,275.7c-.5.4.111,1.082.624.751a11.5,11.5,0,0,0,4.777-11.536c-.864-4.658-4.915-8.71-9.882-8a6.622,6.622,0,0,0-5.2,3.63c-1.058,2.5,1.2,4.585,3.624,4.585a13.707,13.707,0,0,0,6.95-2.429,16.906,16.906,0,0,0,5.407-5.449,16,16,0,0,0,2.354-7.355c.122-2.45-.026-5.045-1.369-7.179-.1-.163-.326-.012-.311.142Z" transform="translate(-5818.355 -242.643)" fill="url(#ap)"/></g></g><g transform="translate(4900.934 102.078)"><g transform="translate(0)"><path d="M5105.9,252.47c5.8-.46,7.556-8.648,3.889-12.461-4.533-4.714-12.608-2.745-15.544,2.708-3.5,6.5-.277,14.214,5.382,18.228,6.7,4.75,15.28,4.684,23.1,3.814,17.152-1.908,33.35-8.351,49.391-14.352,8.085-3.025,16.212-5.982,24.555-8.225a125.967,125.967,0,0,1,12.5-2.726,50.555,50.555,0,0,1,11.676-.869c3.5.251,7.13,1.169,9.827,3.53a11.284,11.284,0,0,1,3.919,7.959,5.731,5.731,0,0,1-3.715,5.71,6.975,6.975,0,0,1-6.223-.538,5.937,5.937,0,0,1-1.965-2.414c-.353-.822-1.859-.673-1.835.305a5.221,5.221,0,0,0,1.154,3.476,7.643,7.643,0,0,0,3.054,2.042,10.215,10.215,0,0,0,7.411-.219c6.085-2.549,6.424-10.264,3.32-15.265-4.08-6.575-11.783-8.188-19.03-7.855-8.174.375-16.357,2.39-24.173,4.7-16.242,4.8-31.7,11.864-47.9,16.778a122.009,122.009,0,0,1-24.61,5.066c-7.347.649-15.964.251-21.259-5.65a11.468,11.468,0,0,1-3.055-8.724,8.274,8.274,0,0,1,4.932-7.143c2.572-1.042,5.958-.788,7.939,1.315,1.917,2.036,1.8,5.364.355,7.627a5.687,5.687,0,0,1-3.215,2.49.353.353,0,0,0,.117.7Z" transform="translate(-5092.789 -235.277)" fill="url(#aq)"/></g></g></g></svg>